<svg width="37" height="52" viewBox="0 0 37 52" fill="none" xmlns="http://www.w3.org/2000/svg">
<path d="M2.78016 9.20505C2.22045 9.74323 1.32922 9.72601 0.791039 9.1663C0.252858 8.60659 0.27008 7.71536 0.829788 7.17718C3.22362 4.87807 6.01785 3.0827 9.04028 1.86426C12.067 0.645817 15.3219 0 18.6371 0C21.9566 0 25.2115 0.645817 28.2426 1.86856C31.2693 3.08701 34.0635 4.88668 36.4617 7.1901C37.0214 7.72828 37.0386 8.61951 36.5004 9.17922C35.9622 9.73892 35.071 9.75615 34.5113 9.21796C32.3801 7.16427 29.8916 5.56694 27.1964 4.48197C24.5054 3.397 21.6036 2.82437 18.6371 2.82437C15.675 2.82437 12.7731 3.397 10.0865 4.47767C7.3956 5.56264 4.90705 7.15996 2.77585 9.20505H2.78016Z" fill="#F27848"/>
<path d="M0.829788 44.3633C0.27008 43.8251 0.252858 42.9339 0.791039 42.3742C1.32922 41.8145 2.22045 41.7973 2.78016 42.3355C4.91135 44.3848 7.3956 45.9822 10.0908 47.0628C12.7774 48.1435 15.6793 48.7161 18.6414 48.7161C21.6165 48.7161 24.5313 48.1392 27.2351 47.0413C29.9432 45.9434 32.4404 44.3289 34.5716 42.2623C35.127 41.7198 36.0182 41.7327 36.5607 42.2881C37.1032 42.8435 37.0903 43.7347 36.5349 44.2772C34.1324 46.6065 31.3296 48.4191 28.2942 49.6504C25.2546 50.8818 21.9781 51.5319 18.6414 51.5319C15.3262 51.5319 12.0713 50.8904 9.04458 49.6676C6.01785 48.4492 3.22792 46.6538 0.834094 44.3547L0.829788 44.3633Z" fill="#F27848"/>
<path d="M27.8143 28.9417C26.5512 28.1941 24.3445 26.3661 22.2884 28.3227C21.8031 28.8166 21.4819 29.1473 21.2742 29.3596C19.4064 28.4749 16.0853 25.2682 15.2242 23.2447C18.2756 20.4709 16.8631 19.4816 13.8621 13.7819C13.3493 12.8971 12.518 12.3101 11.5035 12.3101C10.261 12.3101 9.77534 12.9223 8.00034 14.7185C5.77787 16.967 4.47356 17.6732 5.30955 21.4831C7.68852 32.3281 23.5647 43.1895 28.0608 38.3341C31.7331 34.6866 32.4413 34.3409 32.2262 32.6914C31.9552 31.0489 30.695 30.6463 27.8143 28.9417ZM25.8478 36.2791C25.591 36.5642 24.0535 36.6582 21.5031 35.5996C16.6669 33.5926 11.6502 28.3259 9.59445 24.3941C8.93974 23.1417 7.49191 19.4281 8.29565 18.7038C8.62438 18.392 10.8347 16.1349 11.4001 15.5879C12.9054 18.4411 13.6383 19.7749 13.8817 20.3184C13.4488 20.9868 12.0643 21.5102 12.0643 23.1499C12.6734 26.3535 16.8411 30.2794 19.3321 31.7402C21.8747 33.2313 22.6883 32.2345 23.6143 31.2852C24.4412 30.4382 24.3704 30.4898 24.4566 30.4811L29.0049 33.1542C28.4717 33.7118 26.2158 35.8922 25.8478 36.2791Z" fill="#F26832"/>
</svg>
