<svg width="52" height="52" viewBox="0 0 52 52" fill="none" xmlns="http://www.w3.org/2000/svg">
<path d="M5.16277 17.9236H1.60647C-0.537643 18.0097 -0.533337 21.0709 1.60647 21.1527H3.54823V31.9034C3.63434 34.0475 6.69551 34.0432 6.77731 31.9034V19.5381C6.77731 18.6469 6.054 17.9236 5.16277 17.9236ZM49.6725 30.375C48.7813 30.375 48.058 31.0983 48.058 31.9895C48.1441 34.1336 51.2052 34.1336 51.287 31.9895C51.287 31.0983 50.5637 30.375 49.6725 30.375ZM43.7611 19.4693C43.7611 18.578 43.0378 17.8547 42.1466 17.8547C40.0025 17.9408 40.0025 21.002 42.1466 21.0838C43.0378 21.0838 43.7611 20.3605 43.7611 19.4693ZM49.595 18.014C48.7899 17.6308 47.8255 17.971 47.4423 18.7718L41.4491 31.292C41.0659 32.0971 41.406 33.0616 42.2068 33.4447C42.9947 33.8279 43.9764 33.4964 44.3596 32.687L50.3528 20.1667C50.7359 19.3616 50.3958 18.3972 49.595 18.014ZM32.2225 17.7944C30.4013 17.7944 28.7179 18.6641 27.4779 20.2399C25.1142 23.1289 25.1142 28.1878 27.4779 31.0724C29.9363 34.3187 34.513 34.3187 36.9714 31.0724C39.3351 28.1835 39.3351 23.1246 36.9714 20.2399C35.7315 18.6641 34.0437 17.7944 32.2268 17.7944H32.2225ZM32.2225 30.2888C30.4314 30.2888 28.9202 28.1663 28.9202 25.6562C28.9202 23.1461 30.4314 21.0235 32.2225 21.0235C34.0136 21.0235 35.5248 23.1461 35.5248 25.6562C35.5248 28.1663 34.0136 30.2888 32.2225 30.2888ZM16.3742 33.5179C18.1954 33.5179 19.8788 32.6482 21.1188 31.0724C23.4825 28.1835 23.4825 23.1289 21.1188 20.2399C18.6604 16.9936 14.0837 16.9936 11.6252 20.2399C9.26156 23.1289 9.26156 28.1878 11.6252 31.0724C12.8652 32.6482 14.553 33.5179 16.3699 33.5179H16.3742ZM16.3742 21.0235C18.1652 21.0235 19.6764 23.1461 19.6764 25.6562C19.6764 28.1663 18.1652 30.2888 16.3742 30.2888C14.5831 30.2888 13.0719 28.1663 13.0719 25.6562C13.0719 23.1461 14.5831 21.0235 16.3742 21.0235Z" fill="#689F38"/>
<path d="M9.78406 9.20505C9.22435 9.74323 8.33313 9.72601 7.79495 9.1663C7.25676 8.60659 7.27399 7.71536 7.83369 7.17718C10.2275 4.87807 13.0218 3.0827 16.0442 1.86426C19.0709 0.645817 22.3258 0 25.641 0C28.9605 0 32.2154 0.645817 35.2465 1.86856C38.2732 3.08701 41.0674 4.88668 43.4656 7.1901C44.0253 7.72828 44.0425 8.61951 43.5043 9.17922C42.9662 9.73892 42.0749 9.75615 41.5152 9.21796C39.384 7.16427 36.8955 5.56694 34.2003 4.48197C31.5094 3.397 28.6075 2.82437 25.641 2.82437C22.6789 2.82437 19.777 3.397 17.0904 4.47767C14.3995 5.56264 11.911 7.15996 9.77976 9.20505H9.78406Z" fill="#689F38"/>
<path d="M7.83369 44.3633C7.27399 43.8251 7.25676 42.9338 7.79495 42.3741C8.33313 41.8144 9.22435 41.7972 9.78406 42.3354C11.9153 44.3848 14.3995 45.9821 17.0947 47.0628C19.7813 48.1434 22.6832 48.7161 25.6453 48.7161C28.6204 48.7161 31.5352 48.1391 34.239 47.0412C36.9471 45.9434 39.4443 44.3288 41.5755 42.2622C42.1309 41.7197 43.0221 41.7326 43.5646 42.288C44.1071 42.8434 44.0942 43.7347 43.5388 44.2771C41.1363 46.6064 38.3335 48.419 35.2981 49.6503C32.2585 50.8817 28.9821 51.5318 25.6453 51.5318C22.3301 51.5318 19.0752 50.8903 16.0485 49.6676C13.0218 48.4491 10.2318 46.6538 7.838 44.3546L7.83369 44.3633Z" fill="#689F38"/>
</svg>
