<svg width="65" height="52" viewBox="0 0 65 52" fill="none" xmlns="http://www.w3.org/2000/svg">
<path d="M16.1793 9.20387C15.6187 9.74221 14.7276 9.72365 14.1893 9.16674C13.651 8.60612 13.6695 7.71506 14.2264 7.17671C16.6211 4.87482 19.4131 3.08157 22.439 1.86379C25.4686 0.646016 28.7209 0 32.0364 0C35.3556 0 38.6117 0.646016 41.6413 1.86751C44.6708 3.08899 47.4628 4.88596 49.8575 7.19157C50.4182 7.72991 50.4367 8.62097 49.8947 9.18159C49.3563 9.74221 48.4653 9.76078 47.9046 9.21872C45.7735 7.16558 43.286 5.56539 40.5905 4.48127C37.8988 3.39715 34.9955 2.82539 32.0327 2.82539C29.0699 2.82539 26.1703 3.39715 23.4823 4.47756C20.7905 5.56168 18.303 7.15815 16.1719 9.20758L16.1793 9.20387Z" fill="#689F38"/>
<path d="M14.198 44.3634C13.6373 43.8251 13.6188 42.934 14.1608 42.3734C14.6992 41.8128 15.5902 41.7942 16.1509 42.3363C18.282 44.3857 20.7658 45.9822 23.4612 47.0663C26.1492 48.1504 29.0489 48.7185 32.0117 48.7185C34.9893 48.7185 37.9038 48.1393 40.6066 47.044C43.3169 45.9451 45.8119 44.3337 47.943 42.2658C48.4999 41.7237 49.391 41.7348 49.933 42.2917C50.4751 42.8487 50.4639 43.7397 49.907 44.2818C47.5049 46.6097 44.7018 48.4252 41.6685 49.6541C38.6278 50.8867 35.3531 51.5364 32.0154 51.5364C28.6999 51.5364 25.4475 50.8941 22.418 49.6727C19.3921 48.4549 16.6001 46.6616 14.2054 44.3597L14.198 44.3634Z" fill="#689F38"/>
<path d="M2.87737 27.6821H5.79558C7.09132 27.6821 7.80417 28.2873 7.80417 29.6499C7.80417 30.8602 7.26211 31.6176 6.05176 31.6176H3.24122C2.98133 31.6176 2.87366 31.5322 2.87366 31.2501V27.6821H2.87737ZM8.71379 26.1488C9.60113 25.5882 10.2471 24.5263 10.2471 23.2083C10.2471 20.4423 8.40934 19.0797 5.79558 19.0797H2.11997C1.03957 19.0797 0 19.3619 0 20.9807V32.3045C0 33.927 1.03585 34.2054 2.11997 34.2054H6.3562C8.96997 34.2054 10.8078 32.3899 10.8078 29.6462C10.8078 27.9829 10.0504 26.7948 8.71007 26.1451L8.71379 26.1488ZM5.49485 25.0907H2.88108V22.0425C2.88108 21.7603 2.98875 21.6749 3.24864 21.6749H5.49485C6.7052 21.6749 7.24726 22.2801 7.24726 23.3828C7.24726 24.4186 6.68663 25.0907 5.49485 25.0907ZM12.3263 26.6463C12.3263 31.2278 13.8596 34.4505 18.4634 34.4505C23.0672 34.4505 24.6006 31.2315 24.6006 26.6463C24.6006 22.0425 23.0449 18.8421 18.4634 18.8421C13.8819 18.8421 12.3263 22.0425 12.3263 26.6463ZM21.6638 26.6463C21.6638 28.9816 21.2517 31.8998 18.4634 31.8998C15.6752 31.8998 15.263 28.9816 15.263 26.6463C15.263 24.2887 15.6306 21.3742 18.4634 21.3742C21.274 21.3742 21.6638 24.2924 21.6638 26.6463ZM29.791 19.7072C29.4865 19.1466 28.9482 18.9943 28.2576 18.9943C27.5671 18.9943 26.7651 19.2097 26.7651 19.9894V33.3886C26.7651 34.1869 27.4779 34.4059 28.1685 34.4059C28.8591 34.4059 29.5719 34.1906 29.5719 33.3886V24.4409C29.8764 25.1983 30.2625 25.9557 30.5669 26.4718L34.8254 33.6893C35.1485 34.2314 35.6682 34.4022 36.3588 34.4022C37.0494 34.4022 37.8736 34.1869 37.8736 33.3849V19.9856C37.8736 19.206 37.1608 18.9906 36.4702 18.9906C35.7796 18.9906 35.0668 19.206 35.0668 19.9856V28.8702C34.7623 28.1351 34.3762 27.4445 34.0495 26.9247L29.791 19.7072ZM43.5355 19.9894C43.5355 19.2097 42.8227 18.9943 42.1098 18.9943C41.397 18.9943 40.6841 19.2097 40.6841 19.9894V28.7663C40.6841 32.7872 42.9526 34.4505 46.1307 34.4505C49.3311 34.4505 51.5996 32.7872 51.5996 28.7663V19.9894C51.5996 19.2097 50.8867 18.9943 50.1739 18.9943C49.461 18.9943 48.7482 19.2097 48.7482 19.9894V29.0224C48.7482 30.6635 47.82 31.8553 46.1344 31.8553C44.4489 31.8553 43.5392 30.6672 43.5392 29.0224V19.9894H43.5355ZM56.092 29.9766C55.8098 29.1969 55.0339 29.0039 54.2987 29.1784C53.6304 29.3306 53.2183 29.8058 53.3706 30.5409C53.9534 33.2847 56.3742 34.5173 58.7949 34.5173C61.973 34.5173 64.0892 32.724 64.0892 29.739C64.0669 26.5832 61.4309 25.6773 59.0102 25.0498C58.082 24.8122 56.4818 24.4446 56.4595 23.0821C56.4595 21.764 57.54 21.3111 58.5572 21.3111C60.0275 21.3111 60.6549 21.894 61.1524 23.0412C61.4346 23.7318 62.1697 23.7763 62.7526 23.7095C63.5731 23.6241 64.0261 23.0821 63.8553 22.436C63.1202 19.7109 60.874 18.8273 58.4718 18.8273C56.0066 18.8273 53.5859 20.3421 53.5859 23.1081C53.5859 26.1339 56.1996 27.1067 58.535 27.7118C59.5931 27.994 61.2378 28.3801 61.2378 29.8727C61.2378 31.3874 60.072 32.0112 58.754 32.0112C57.4805 32.0112 56.5264 31.2315 56.0957 29.9803L56.092 29.9766Z" fill="#689F38"/>
</svg>
