<svg width="25" height="26" viewBox="0 0 25 26" fill="none" xmlns="http://www.w3.org/2000/svg">
<path d="M2.77412 0H22.2259C22.9892 0 23.6828 0.32446 24.1854 0.847165C24.688 1.36987 25 2.09125 25 2.88509V23.1149C25 23.9087 24.688 24.6301 24.1854 25.1528C23.6828 25.6755 22.9892 26 22.2259 26H2.77412C2.01082 26 1.31718 25.6755 0.814581 25.1528C0.311981 24.6301 0 23.9087 0 23.1149V2.88509C0 2.09125 0.311981 1.36987 0.814581 0.847165C1.31718 0.32446 2.01082 0 2.77412 0V0ZM22.2259 0.961768H2.77412C2.26594 0.961768 1.80366 1.17829 1.46831 1.52705C1.13297 1.8758 0.924777 2.35658 0.924777 2.88509V23.1149C0.924777 23.6434 1.13297 24.1242 1.46831 24.4729C1.80366 24.8217 2.26594 25.0382 2.77412 25.0382H22.2259C22.7341 25.0382 23.1963 24.8217 23.5317 24.4729C23.867 24.1242 24.0752 23.6434 24.0752 23.1149V2.88509C24.0752 2.35658 23.867 1.8758 23.5317 1.52705C23.1963 1.17829 22.7341 0.961768 22.2259 0.961768Z" fill="#73645C"/>
<path d="M12.5002 6.53955C14.2156 6.53955 15.7687 7.26265 16.8927 8.43191C18.0168 9.60096 18.7123 11.2162 18.7123 13.0002C18.7123 14.7841 18.017 16.3993 16.8927 17.5684C15.7687 18.7374 14.2156 19.4608 12.5002 19.4608C10.7848 19.4608 9.23174 18.7377 8.10766 17.5684C6.98358 16.3993 6.28809 14.7841 6.28809 13.0002C6.28809 11.2162 6.98337 9.60096 8.10766 8.43191C9.23174 7.26287 10.7848 6.53955 12.5002 6.53955ZM16.239 9.11179C15.2822 8.1167 13.9605 7.50132 12.5002 7.50132C11.0402 7.50132 9.71822 8.1167 8.7614 9.11179C7.80457 10.1069 7.21286 11.4815 7.21286 13.0002C7.21286 14.5186 7.80457 15.8934 8.7614 16.8885C9.71822 17.8836 11.04 18.499 12.5002 18.499C13.9602 18.499 15.2822 17.8836 16.239 16.8885C17.1958 15.8934 17.7875 14.5188 17.7875 13.0002C17.7875 11.4817 17.1958 10.1069 16.239 9.11179Z" fill="#73645C"/>
<path d="M19.1253 3.89795C19.6242 3.89795 20.0759 4.10824 20.403 4.44839C20.7301 4.78855 20.9323 5.25836 20.9323 5.77719C20.9323 6.29603 20.7301 6.76584 20.403 7.10599C20.0759 7.44615 19.6242 7.65643 19.1253 7.65643C18.6264 7.65643 18.1747 7.44615 17.8476 7.10599C17.5206 6.76584 17.3184 6.29624 17.3184 5.77719C17.3184 5.25836 17.5206 4.78855 17.8476 4.44839C18.1747 4.10824 18.6262 3.89795 19.1253 3.89795ZM19.7491 5.12827C19.5895 4.96228 19.3689 4.8595 19.1253 4.8595C18.8818 4.8595 18.6612 4.96228 18.5016 5.12827C18.342 5.29427 18.2431 5.52369 18.2431 5.77698C18.2431 6.03027 18.342 6.25969 18.5016 6.42568C18.6612 6.59167 18.8818 6.69445 19.1253 6.69445C19.3689 6.69445 19.5895 6.59167 19.7491 6.42568C19.9087 6.25969 20.0075 6.03027 20.0075 5.77698C20.0075 5.52369 19.9087 5.29427 19.7491 5.12827Z" fill="#73645C"/>
</svg>
