<svg width="26" height="26" viewBox="0 0 26 26" fill="none" xmlns="http://www.w3.org/2000/svg">
<g clip-path="url(#clip0)">
<path d="M2.88592 0H23.1157C23.9096 0 24.6309 0.324494 25.1536 0.847197C25.6763 1.3699 26.0008 2.09137 26.0008 2.88513V23.1149C26.0008 23.9088 25.6763 24.6301 25.1536 25.1528C24.6309 25.6755 23.9094 26 23.1157 26H16.0341V15.6099H19.2576L19.608 12.8962H16.0341V10.0691C16.0341 9.43473 16.1327 8.88854 16.4867 8.46772C16.8434 8.04393 17.4147 7.7995 18.3364 7.7995V7.80135L19.8021 7.80079V5.42487C19.5695 5.40509 19.267 5.38364 18.9146 5.3657C18.4973 5.34444 17.9986 5.32909 17.4467 5.32909C16.1445 5.32909 15.0612 5.7257 14.3216 6.48581C13.6107 7.21652 13.2011 8.29872 13.2011 9.70523V12.8964H10.0281V15.6101H13.2011V26.0002H2.88611C2.09216 26.0002 1.37088 25.6757 0.848174 25.153C0.32547 24.6303 0.000976562 23.9088 0.000976562 23.1151V2.88531C0.000976562 2.09137 0.32547 1.37009 0.848174 0.847382C1.37088 0.324679 2.09234 0.000184897 2.88611 0.000184897L2.88592 0ZM23.1157 0.961648H2.88592C2.35749 0.961648 1.87675 1.17816 1.52785 1.52706C1.17895 1.87596 0.96244 2.35669 0.96244 2.88513V23.1149C0.96244 23.6433 1.17895 24.124 1.52785 24.4729C1.87675 24.8218 2.35749 25.0384 2.88592 25.0384H12.2393V16.5716H9.06628V11.9343H12.2393V9.70486C12.2393 8.03506 12.7491 6.72617 13.6342 5.81667C14.5612 4.86408 15.8825 4.36689 17.4467 4.36689C17.9772 4.36689 18.4997 4.3839 18.9597 4.40738C19.6207 4.44085 20.1303 4.48911 20.3413 4.51647L20.7601 4.57083V8.75801L18.3364 8.75893V8.76078C17.7309 8.76078 17.3914 8.87874 17.2193 9.08342C17.0446 9.29106 16.9959 9.63941 16.9959 10.0687V11.9342H20.6983L20.0994 16.5714H16.9959V25.0382H23.1158C23.6443 25.0382 24.125 24.8217 24.4739 24.4728C24.8228 24.1239 25.0393 23.6431 25.0393 23.1147V2.88494C25.0393 2.35651 24.8228 1.87578 24.4739 1.52688C24.125 1.17798 23.6443 0.961463 23.1158 0.961463L23.1157 0.961648Z" fill="#73645C"/>
</g>
<defs>
<clipPath id="clip0">
<rect width="26" height="26" fill="white"/>
</clipPath>
</defs>
</svg>
