<svg width="20" height="20" viewBox="0 0 20 20" fill="none" xmlns="http://www.w3.org/2000/svg">
<path d="M9.09966 1.39999C9.39966 1.59999 9.69966 1.89999 9.99966 2.19999C10.2997 1.89999 10.5997 1.59999 10.8997 1.39999C11.7997 0.699994 12.9997 0.399994 13.8997 0.399994C15.2997 0.399994 16.5997 1.09999 17.5997 2.09999C18.5997 3.09999 19.2997 4.39999 19.4997 5.89999C19.6997 7.59999 19.2997 9.39999 17.7997 11.6C16.3997 13.7 14.0997 16.1 10.3997 19.3C10.0997 19.6 9.59966 19.6 9.19966 19.3C5.59966 16.1 3.19966 13.6 1.79966 11.6C0.299655 9.39999 -0.100345 7.59999 0.0996553 5.89999C0.299655 4.39999 0.999655 3.09999 1.99966 2.09999C2.99966 1.09999 4.39966 0.399994 5.69966 0.399994C6.99965 0.399994 8.09966 0.699994 9.09966 1.39999Z" fill="#73645C"/>
</svg>
