<svg width="20" height="19" viewBox="0 0 20 19" fill="none" xmlns="http://www.w3.org/2000/svg">
<path d="M19.2188 1.56887H15.3715V0.78125C15.3715 0.349766 15.0218 0 14.5903 0C14.1588 0 13.809 0.349766 13.809 0.78125V1.56887H6.19098V0.78125C6.19098 0.349766 5.84121 0 5.40973 0C4.97824 0 4.62848 0.349766 4.62848 0.78125V1.56887H0.78125C0.349766 1.56887 0 1.91867 0 2.35012V17.6562C0 18.0877 0.349766 18.4375 0.78125 18.4375H19.2188C19.6502 18.4375 20 18.0877 20 17.6562V2.35012C20 1.91867 19.6502 1.56887 19.2188 1.56887ZM18.4375 16.875H1.5625V3.13137H4.62848V3.91902C4.62848 4.35051 4.97824 4.70027 5.40973 4.70027C5.84121 4.70027 6.19098 4.35051 6.19098 3.91902V3.13137H13.809V3.91902C13.809 4.35051 14.1588 4.70027 14.5902 4.70027C15.0217 4.70027 15.3715 4.35051 15.3715 3.91902V3.13137H18.4375V16.875Z" fill="black"/>
<path d="M10 9.45117C10.5825 9.45117 11.0547 8.97897 11.0547 8.39649C11.0547 7.814 10.5825 7.3418 10 7.3418C9.41751 7.3418 8.94531 7.814 8.94531 8.39649C8.94531 8.97897 9.41751 9.45117 10 9.45117Z" fill="black"/>
<path d="M10 14.041C10.5825 14.041 11.0547 13.5688 11.0547 12.9863C11.0547 12.4038 10.5825 11.9316 10 11.9316C9.41751 11.9316 8.94531 12.4038 8.94531 12.9863C8.94531 13.5688 9.41751 14.041 10 14.041Z" fill="black"/>
<path d="M5.41016 9.45117C5.99265 9.45117 6.46485 8.97897 6.46485 8.39649C6.46485 7.814 5.99265 7.3418 5.41016 7.3418C4.82767 7.3418 4.35547 7.814 4.35547 8.39649C4.35547 8.97897 4.82767 9.45117 5.41016 9.45117Z" fill="black"/>
<path d="M14.5898 9.45117C15.1723 9.45117 15.6445 8.97897 15.6445 8.39649C15.6445 7.814 15.1723 7.3418 14.5898 7.3418C14.0074 7.3418 13.5352 7.814 13.5352 8.39649C13.5352 8.97897 14.0074 9.45117 14.5898 9.45117Z" fill="black"/>
<path d="M5.41016 14.041C5.99265 14.041 6.46485 13.5688 6.46485 12.9863C6.46485 12.4038 5.99265 11.9316 5.41016 11.9316C4.82767 11.9316 4.35547 12.4038 4.35547 12.9863C4.35547 13.5688 4.82767 14.041 5.41016 14.041Z" fill="black"/>
<path d="M14.5898 14.041C15.1723 14.041 15.6445 13.5688 15.6445 12.9863C15.6445 12.4038 15.1723 11.9316 14.5898 11.9316C14.0074 11.9316 13.5352 12.4038 13.5352 12.9863C13.5352 13.5688 14.0074 14.041 14.5898 14.041Z" fill="black"/>
</svg>
