<svg width="26" height="26" viewBox="0 0 26 26" fill="none" xmlns="http://www.w3.org/2000/svg">
<path d="M2.88516 0H23.1148C23.9088 0 24.6303 0.324492 25.1529 0.847107C25.6755 1.36972 26 2.0912 26 2.88516V23.1148C26 23.9088 25.6755 24.6303 25.1529 25.1529C24.6303 25.6755 23.9088 26 23.1148 26H2.88516C2.0912 26 1.36972 25.6755 0.847107 25.1529C0.324492 24.6303 0 23.9088 0 23.1148V2.88516C0 2.0912 0.324492 1.36972 0.847107 0.847107C1.36972 0.324492 2.0912 0 2.88516 0V0ZM23.1148 0.96172H2.88516C2.35667 0.96172 1.87593 1.17821 1.52719 1.52719C1.17846 1.87593 0.96172 2.35691 0.96172 2.88516V23.1148C0.96172 23.6433 1.17821 24.1241 1.52719 24.4728C1.87593 24.8215 2.35691 25.0383 2.88516 25.0383H23.1148C23.6433 25.0383 24.1241 24.8218 24.4728 24.4728C24.8215 24.1241 25.0383 23.6431 25.0383 23.1148V2.88516C25.0383 2.35667 24.8218 1.87593 24.4728 1.52719C24.1241 1.17846 23.6431 0.96172 23.1148 0.96172Z" fill="#73645C"/>
<path d="M21.1926 17.2125C21.1896 17.2061 21.1825 17.1921 21.1715 17.1708C21.1651 17.1588 21.1607 17.1505 21.158 17.1459L21.1504 17.1309C21.0153 16.8875 20.8137 16.6108 20.5463 16.3012C20.2926 16.0076 19.9796 15.6858 19.6078 15.3356H19.5988L19.4589 15.2021C19.2635 15.0157 19.1016 14.8575 18.973 14.7277C18.8391 14.592 18.7414 14.4865 18.6801 14.4106L18.6745 14.403C18.5315 14.2186 18.4426 14.0261 18.4078 13.8253C18.3716 13.6149 18.3961 13.4055 18.481 13.1971C18.5315 13.0685 18.6348 12.8907 18.7908 12.664C18.9299 12.4614 19.1215 12.204 19.3646 11.892L19.3644 11.8918C19.4636 11.7635 19.5743 11.6197 19.6962 11.46C19.8268 11.2893 19.9115 11.1779 19.9507 11.1255C20.4544 10.4557 20.8149 9.90834 21.0317 9.4832C21.158 9.23536 21.2293 9.06417 21.2457 8.96964L21.2234 8.96279C21.1838 8.95103 21.1375 8.94393 21.0848 8.94197C21.0123 8.93903 20.9305 8.94368 20.8394 8.95519L20.8118 8.95862C19.9012 8.96499 18.9907 8.97111 18.0801 8.97748L18.0713 8.9743L18.0537 8.97846L18.0498 8.98556C18.0451 8.99389 18.0414 9.00099 18.0388 9.00687H18.039C17.8906 9.38867 17.7341 9.75283 17.5695 10.0991C17.4054 10.4444 17.2274 10.7834 17.0354 11.1159L17.0317 11.1235C16.9164 11.3168 16.8072 11.4953 16.7038 11.6586C16.5936 11.833 16.492 11.9883 16.3992 12.1244C16.3024 12.2662 16.2106 12.3933 16.1234 12.5057C16.0328 12.6226 15.9498 12.7195 15.8746 12.7967C15.8001 12.8729 15.7325 12.9385 15.6723 12.9933C15.6059 13.0536 15.5408 13.1082 15.4769 13.1569C15.3951 13.2196 15.3147 13.2676 15.2354 13.3012C15.1024 13.3575 14.9726 13.3717 14.8462 13.3433C14.7468 13.321 14.8022 13.3347 14.761 13.3252L14.6016 13.2855L14.5357 13.2431C14.4583 13.1934 14.3888 13.1349 14.3271 13.0678C14.2683 13.0039 14.2161 12.9304 14.1708 12.8476L14.1701 12.8481C14.1282 12.772 14.0934 12.687 14.0657 12.5934C14.042 12.5126 14.0236 12.4225 14.0111 12.3231C13.9977 12.2168 13.9891 12.144 13.9859 12.1056C13.9815 12.0542 13.9781 11.9885 13.9756 11.9082C13.9742 11.8528 13.9737 11.7843 13.9746 11.7017C13.9756 11.619 13.9773 11.5328 13.9803 11.4439C13.9835 11.3466 13.9857 11.2717 13.9871 11.2176C13.9874 11.2044 13.9876 11.1546 13.9876 11.0775C13.9876 11.0263 13.9893 10.9041 13.9928 10.7099C13.9952 10.5742 13.9986 10.4422 14.0028 10.3134L14.0153 9.94949C14.0195 9.8312 14.0229 9.73642 14.0256 9.66957C14.029 9.58459 14.0312 9.50744 14.0324 9.43789C14.0327 9.42565 14.0327 9.3414 14.0327 9.18883C14.0327 9.10875 14.0307 9.04238 14.0266 8.98997C14.0226 8.93952 14.0177 8.90058 14.0121 8.8734C14.0057 8.84352 13.9972 8.81144 13.9862 8.77764C13.9746 8.74213 13.9624 8.71029 13.9497 8.68213L13.9489 8.68238C13.9462 8.6765 13.9445 8.67307 13.9438 8.67234C13.9279 8.66254 13.9083 8.65274 13.8848 8.64344C13.8564 8.63193 13.8213 8.62115 13.7797 8.61062L13.78 8.60989C13.6406 8.57903 13.4822 8.55503 13.3041 8.53789C13.1109 8.51927 12.8976 8.5085 12.6647 8.5058C12.122 8.49993 11.677 8.51462 11.3302 8.5494C11.2127 8.56115 11.1096 8.57462 11.0214 8.5898C11.1164 8.66303 11.1987 8.74703 11.2683 8.84181L11.2888 8.86972L11.3579 9.0076L11.3586 9.00711C11.3934 9.07152 11.4265 9.15552 11.4581 9.25887C11.4857 9.34948 11.5107 9.44744 11.533 9.5525C11.558 9.67055 11.5781 9.78981 11.5928 9.90981C11.6062 10.0185 11.6165 10.143 11.6236 10.283H11.6241C11.6405 10.5223 11.6486 10.7381 11.6486 10.9303C11.6486 11.1235 11.6398 11.3119 11.6221 11.4953C11.6035 11.6875 11.5888 11.8313 11.5778 11.9248C11.5651 12.0328 11.5499 12.1443 11.532 12.2591C11.5141 12.3745 11.4933 12.4734 11.4696 12.5557C11.4424 12.6502 11.4074 12.7406 11.3643 12.8268C11.3319 12.8915 11.3067 12.9404 11.2886 12.9735C11.2594 13.0269 11.2332 13.069 11.2102 13.0999C11.1862 13.132 11.1634 13.1586 11.1421 13.1802C11.0959 13.2265 11.0471 13.2627 10.9959 13.2882L10.9763 13.298L10.9526 13.3071C10.8901 13.3311 10.8216 13.3499 10.7474 13.3636C10.6729 13.3773 10.6026 13.3844 10.5365 13.3844C10.4334 13.3844 10.3256 13.3614 10.2135 13.3151C10.1302 13.2809 10.0435 13.2321 9.9534 13.1689C9.87087 13.1111 9.79176 13.047 9.7156 12.9764C9.64384 12.9101 9.56866 12.832 9.49005 12.7423C9.41756 12.6598 9.33845 12.5577 9.25225 12.436C9.16556 12.3135 9.0818 12.1864 9.00074 12.0544C8.91355 11.9124 8.82588 11.7593 8.73796 11.5959C8.65372 11.4395 8.56702 11.2695 8.47812 11.0858L8.33584 10.8277L8.33388 10.8221C8.27853 10.7187 8.22294 10.6117 8.1671 10.5005C8.10294 10.3727 8.03118 10.2277 7.95232 10.0651C7.88179 9.9201 7.80587 9.75577 7.72432 9.57234C7.64473 9.39307 7.57714 9.23389 7.52155 9.09503L7.51787 9.08744C7.50857 9.06295 7.50024 9.04581 7.49289 9.03601C7.48995 9.03209 7.48677 9.02866 7.4831 9.02548L7.43485 8.99634L7.42114 8.98532L7.42089 8.98556H7.41893C7.40032 8.97577 7.38612 8.96866 7.37583 8.9645C7.3631 8.95936 7.34669 8.95372 7.32636 8.94809C7.31779 8.94564 7.30946 8.94344 7.30163 8.94148L4.86292 8.95911L4.86096 8.96107C4.83818 8.96107 4.81712 8.96156 4.79802 8.96254C4.97435 9.37495 5.15337 9.77046 5.33484 10.1488C5.52292 10.5409 5.72521 10.9381 5.9417 11.3405C6.15403 11.735 6.35093 12.0887 6.5324 12.4012C6.71607 12.7176 6.88309 12.9916 7.03346 13.2226C7.18138 13.4503 7.33738 13.6808 7.50122 13.9142C7.66016 14.1407 7.81836 14.3572 7.97559 14.5639V14.5658C8.09584 14.7238 8.23028 14.8977 8.37943 15.0872C8.49037 15.2285 8.56531 15.3214 8.60425 15.3659C8.64172 15.4088 8.68653 15.4587 8.73796 15.5146C8.76612 15.5452 8.79796 15.5785 8.83347 15.614L8.83274 15.6147L9.05315 15.8261L9.06074 15.8337C9.12196 15.8949 9.19911 15.9635 9.29217 16.0394C9.39429 16.1227 9.51037 16.2111 9.64066 16.3051C9.76654 16.3957 9.90785 16.4915 10.0651 16.5921C10.2274 16.6962 10.3839 16.7915 10.5348 16.8784C10.6832 16.9637 10.8483 17.043 11.03 17.1162C11.2159 17.1912 11.4113 17.2566 11.6163 17.3126C11.8151 17.367 12.0147 17.4055 12.2146 17.4282C12.4107 17.4505 12.6027 17.4564 12.7898 17.4459L12.816 17.4439H13.8382C13.8872 17.4385 13.9264 17.4299 13.9553 17.4177C13.9631 17.4145 13.9702 17.4111 13.9761 17.4077C13.9791 17.3996 13.9815 17.3915 13.9837 17.3839V17.3819C13.9891 17.3628 13.9928 17.3462 13.9945 17.3325C13.996 17.3202 13.9967 17.2967 13.9967 17.2619H13.9984C13.9952 17.1101 13.9986 16.9734 14.0087 16.852C14.0202 16.7141 14.0395 16.5823 14.067 16.457C14.0924 16.3392 14.1211 16.2321 14.1527 16.1356C14.1867 16.0316 14.2262 15.9385 14.2705 15.8572C14.3082 15.7879 14.3503 15.7215 14.3964 15.6581C14.4456 15.5905 14.4955 15.5312 14.5465 15.4805C14.593 15.434 14.6337 15.3961 14.6677 15.3669H14.6697C14.7294 15.316 14.7818 15.2792 14.8271 15.2567L14.8276 15.2574C14.8475 15.2476 14.868 15.2378 14.8893 15.2285C14.9173 15.2163 14.9408 15.207 14.9596 15.2006H14.9633C15.1274 15.146 15.2983 15.1431 15.4766 15.1921C15.6187 15.231 15.7622 15.3027 15.9067 15.4073C16.0252 15.493 16.1376 15.5863 16.2434 15.687C16.3521 15.7906 16.4547 15.9003 16.5507 16.0166C16.6494 16.1361 16.7405 16.2432 16.8243 16.3379C16.9122 16.4374 17.0222 16.5581 17.1539 16.6997C17.2727 16.8272 17.3768 16.9321 17.4659 17.0136C17.549 17.0895 17.6254 17.1527 17.6954 17.2032L17.8659 17.3055C17.909 17.3315 17.9587 17.3562 18.0148 17.38C18.073 17.4047 18.1463 17.4307 18.2349 17.4583C18.3025 17.4794 18.3596 17.4921 18.4056 17.4963C18.4423 17.4995 18.4749 17.4983 18.5028 17.4924L18.5442 17.4838L20.9195 17.4468L20.9251 17.4449C21.0091 17.4449 21.078 17.4392 21.1318 17.4277C21.1727 17.4192 21.2011 17.4101 21.2166 17.4008V17.3988L21.2278 17.392C21.2271 17.3766 21.2249 17.3599 21.2217 17.3415H21.221C21.2127 17.2965 21.2043 17.259 21.1965 17.2289C21.1933 17.2171 21.1936 17.2152 21.1928 17.2135L21.1926 17.2125ZM22.0243 16.7276C22.0328 16.744 22.046 16.7717 22.0642 16.8106C22.086 16.8576 22.106 16.9154 22.1242 16.9837C22.1374 17.0339 22.1506 17.0942 22.1638 17.164V17.1677C22.1798 17.2551 22.1871 17.3396 22.1861 17.4214C22.1847 17.5166 22.1734 17.6046 22.1518 17.6851C22.1195 17.8054 22.0583 17.9156 21.9677 18.0148C21.8979 18.0914 21.8105 18.1612 21.7049 18.2239L21.7042 18.2224C21.593 18.2886 21.4686 18.3363 21.3309 18.3655C21.2063 18.3919 21.0709 18.4051 20.9251 18.4051V18.4034L18.6515 18.4389C18.5477 18.4561 18.4382 18.4593 18.3228 18.4492C18.1994 18.4382 18.075 18.413 17.9494 18.3738C17.8441 18.341 17.7419 18.3035 17.6428 18.2616C17.5414 18.2188 17.4517 18.1739 17.3736 18.1272L17.1921 18.0182L17.164 17.9993C17.057 17.9241 16.9421 17.8308 16.8196 17.7189C16.6972 17.607 16.5743 17.4848 16.4513 17.3523C16.3409 17.2335 16.226 17.1069 16.1067 16.9717C15.9833 16.8321 15.8844 16.7173 15.8107 16.6279C15.7343 16.5353 15.6581 16.453 15.5822 16.3808C15.5036 16.3059 15.4249 16.2402 15.3468 16.1836C15.3111 16.1577 15.2805 16.1388 15.2557 16.1268C15.2467 16.1354 15.2369 16.145 15.2263 16.1555C15.2048 16.177 15.1859 16.1988 15.1702 16.2204C15.1514 16.2463 15.1318 16.2777 15.112 16.3144C15.0985 16.3389 15.0831 16.3781 15.0657 16.4315C15.0458 16.4922 15.026 16.5681 15.0062 16.659C14.988 16.7425 14.9748 16.8329 14.9667 16.9301C14.9577 17.0398 14.9542 17.1463 14.9567 17.2499L14.9587 17.2612C14.9587 17.3173 14.9542 17.3807 14.9449 17.452C14.9361 17.5213 14.9239 17.5842 14.908 17.6406L14.9075 17.6403C14.8908 17.7003 14.8744 17.7503 14.8582 17.7899C14.8357 17.8458 14.8083 17.8977 14.776 17.9455L14.7534 17.9773L14.7064 18.0366L14.689 18.0549C14.5876 18.1617 14.4659 18.2447 14.3234 18.3037C14.1958 18.3566 14.0552 18.3899 13.9014 18.4032L13.86 18.4051H12.8158V18.4046C12.5817 18.4164 12.3461 18.4088 12.109 18.3819C11.8673 18.3544 11.619 18.3059 11.364 18.2364C11.115 18.1683 10.8845 18.0917 10.6724 18.0062C10.4559 17.919 10.2507 17.8196 10.057 17.7084C9.86572 17.5982 9.69527 17.4953 9.54589 17.3996C9.39111 17.3004 9.23609 17.1948 9.08033 17.0824C8.92923 16.9737 8.79796 16.8738 8.68678 16.7829C8.56996 16.6877 8.47029 16.599 8.38775 16.517L8.16073 16.299L8.15314 16.2934C8.12767 16.2679 8.08726 16.2248 8.03143 16.1641C7.99983 16.1295 7.95061 16.0739 7.88277 15.9965C7.81592 15.9201 7.72947 15.8146 7.62416 15.6804C7.55681 15.5947 7.41991 15.4161 7.21371 15.145L7.21273 15.1458C7.04326 14.9229 6.87746 14.6964 6.71583 14.4659C6.5586 14.2418 6.39648 14.0013 6.22946 13.7444C6.06488 13.4915 5.88929 13.204 5.70219 12.8817C5.51288 12.5555 5.31084 12.193 5.09655 11.7946C4.88618 11.4039 4.67777 10.9928 4.47083 10.5615C4.26512 10.1327 4.07238 9.70728 3.89287 9.28483L3.88528 9.26597C3.8603 9.1996 3.84046 9.13299 3.82552 9.06638C3.80764 8.98605 3.79883 8.91454 3.79883 8.85185C3.79883 8.79307 3.80422 8.73478 3.81499 8.67748C3.82993 8.5974 3.85687 8.52491 3.89556 8.4605L3.90879 8.43993L3.94503 8.38556L3.96756 8.35544C4.07189 8.22319 4.21295 8.12743 4.39051 8.06817C4.52936 8.02188 4.6861 7.99862 4.86071 7.99862V8.00058L7.39003 7.98221L7.42604 7.98809C7.48285 7.99739 7.53599 8.00915 7.58546 8.02311C7.63469 8.03707 7.68636 8.05494 7.74024 8.07723C7.79657 8.1005 7.83992 8.11984 7.86979 8.13576L7.8693 8.13649C7.90187 8.15388 7.93322 8.17323 7.9631 8.19454L7.99469 8.21364L8.0209 8.23054C8.11126 8.29274 8.19061 8.36939 8.25894 8.46025C8.32433 8.54744 8.37649 8.64221 8.41543 8.74458L8.41469 8.74483C8.4791 8.90572 8.54082 9.05242 8.59935 9.18442C8.6569 9.31422 8.72939 9.46826 8.81608 9.64704C8.89445 9.80842 8.96351 9.94851 9.02351 10.0675C9.08988 10.1995 9.14107 10.299 9.17633 10.3651L9.17731 10.3646L9.32254 10.6281L9.3338 10.6506C9.41731 10.8235 9.50058 10.9869 9.58311 11.1402C9.66466 11.2915 9.74352 11.4294 9.81968 11.5536C9.90221 11.6878 9.97348 11.7975 10.0337 11.8825C10.0945 11.9682 10.1537 12.0441 10.2115 12.1097C10.263 12.1683 10.3156 12.2226 10.3695 12.2726C10.4192 12.3186 10.4633 12.3554 10.502 12.3823L10.5118 12.3889C10.5221 12.3662 10.5333 12.3336 10.5456 12.2915C10.5627 12.2315 10.5762 12.1715 10.5855 12.1112C10.5948 12.0507 10.6078 11.9515 10.6237 11.8144C10.6416 11.6628 10.6563 11.5264 10.668 11.4037C10.6805 11.2724 10.6869 11.114 10.6869 10.9288C10.6869 10.7427 10.68 10.5483 10.6661 10.3455V10.3362C10.6612 10.2382 10.6521 10.1344 10.6384 10.0249C10.6259 9.92377 10.611 9.83218 10.5936 9.75038C10.5735 9.65585 10.5561 9.5841 10.5412 9.53561C10.5301 9.49985 10.5208 9.47463 10.5132 9.46042L10.5076 9.4472L10.4775 9.38695C10.4481 9.35438 10.4087 9.32548 10.359 9.30026C10.2772 9.25887 10.1709 9.22826 10.0401 9.20866H10.0381C9.97299 9.19862 9.91201 9.17854 9.85519 9.14769C9.69797 9.06246 9.60784 8.93144 9.58531 8.75364C9.57233 8.65176 9.58801 8.55038 9.63209 8.44899C9.66515 8.37307 9.7156 8.29372 9.78295 8.21119L9.79789 8.19625C9.86744 8.11862 9.94189 8.04833 10.0215 7.98539C10.1028 7.92123 10.1885 7.86564 10.2781 7.81862L10.2894 7.81298C10.502 7.70866 10.8176 7.63543 11.2362 7.59355C11.6123 7.55584 12.0916 7.53992 12.674 7.54629H12.6759C12.9395 7.54947 13.179 7.56147 13.3942 7.58229C13.62 7.60408 13.8226 7.63519 14.0016 7.67559L14.0129 7.67755C14.0922 7.69739 14.1686 7.72213 14.2418 7.75176C14.319 7.78286 14.3905 7.81911 14.4559 7.86025C14.5382 7.91217 14.6107 7.97462 14.6726 8.04735C14.7338 8.11911 14.7845 8.19894 14.8242 8.28662V8.28858C14.8538 8.35446 14.8788 8.41813 14.8989 8.4796C14.9192 8.54205 14.9369 8.60768 14.9513 8.67674C14.9667 8.74972 14.9778 8.82981 14.9846 8.91723C14.9912 9.00221 14.9944 9.09234 14.9944 9.1876C14.9944 9.21038 14.9932 9.29756 14.9902 9.45161C14.9885 9.54859 14.9863 9.63357 14.9834 9.70581C14.9797 9.79618 14.9765 9.88679 14.9731 9.98181L14.9606 10.3421C14.956 10.4824 14.9525 10.6097 14.9506 10.7236C14.9496 10.7792 14.9491 10.8972 14.9491 11.0763C14.9491 11.0846 14.9479 11.1191 14.9449 11.2389C14.9432 11.3097 14.941 11.388 14.9381 11.4728C14.9349 11.5688 14.9332 11.6469 14.9324 11.7081C14.9317 11.774 14.9322 11.8315 14.9334 11.8805C14.9342 11.9033 14.9376 11.9506 14.9437 12.0216C14.9511 12.1056 14.9569 12.1653 14.9616 12.2016C14.967 12.2432 14.9748 12.2822 14.9853 12.3186C14.9986 12.3071 15.012 12.2951 15.026 12.2824C15.0806 12.2327 15.1342 12.181 15.1869 12.1271C15.2386 12.0742 15.2978 12.0047 15.3645 11.919C15.4347 11.8284 15.5153 11.7164 15.6064 11.5827C15.7014 11.4434 15.7967 11.2981 15.8922 11.147C15.9946 10.9849 16.1004 10.813 16.2089 10.6308L16.2094 10.631C16.3793 10.3362 16.5434 10.0222 16.7018 9.68916C16.861 9.35438 17.0087 9.01152 17.1451 8.66082L17.1471 8.65715C17.1686 8.60303 17.1916 8.55454 17.2161 8.51193C17.2416 8.46711 17.2727 8.4218 17.3092 8.37625C17.3445 8.33217 17.3763 8.29641 17.4047 8.26948C17.4341 8.24131 17.4647 8.21633 17.4965 8.19429L17.5592 8.14703L17.7052 8.07405L17.8757 8.03462C17.9437 8.01894 18.0106 8.01037 18.0757 8.00866C18.1264 8.00743 18.1747 8.01062 18.2205 8.01845L20.7483 8.00107C20.8823 7.98515 21.0057 7.97951 21.1189 7.98392C21.2597 7.98931 21.386 8.0089 21.498 8.04245C21.6008 8.07331 21.6914 8.1098 21.77 8.15168C21.8881 8.21437 21.9782 8.2925 22.0404 8.3858L22.0536 8.40637L22.1305 8.53495L22.1472 8.58148C22.264 8.90646 22.1778 9.35218 21.8886 9.91887C21.6515 10.3837 21.2609 10.9773 20.7175 11.7003C20.6114 11.8418 20.5255 11.9557 20.4591 12.0424C20.3844 12.1401 20.2725 12.2853 20.1233 12.4778L20.1214 12.4798C19.8934 12.7722 19.7129 13.0151 19.5799 13.2086C19.465 13.3756 19.3962 13.4885 19.3737 13.5471L19.37 13.5564C19.3541 13.5948 19.349 13.6306 19.3548 13.6636C19.3622 13.706 19.3864 13.7547 19.4278 13.8093C19.4692 13.8605 19.5456 13.9426 19.6571 14.0552C19.7442 14.1434 19.8522 14.2497 19.9811 14.3738H19.998L20.1481 14.524L20.1471 14.5249L20.163 14.5409C20.6002 14.9472 20.9697 15.3248 21.2714 15.674C21.5771 16.0276 21.8131 16.3531 21.9802 16.6507L21.9809 16.6502C21.9966 16.6759 22.011 16.7019 22.0245 16.7278L22.0243 16.7276ZM7.42065 8.98458L7.41942 8.9836V8.98385L7.42065 8.98507L7.42089 8.98483L7.42065 8.98458ZM7.41942 8.9836L7.40448 8.9716C7.39444 8.96352 7.41403 8.97919 7.41942 8.98385V8.9836Z" fill="#73645C"/>
</svg>
