<svg width="26" height="27" viewBox="0 0 26 27" fill="none" xmlns="http://www.w3.org/2000/svg">
<path d="M3.05029 1.37818H22.4839C23.8833 1.37818 25.0177 2.51256 25.0177 3.9119V23.3455C25.0177 24.7449 23.8833 25.8793 22.4839 25.8793H3.05029C1.65096 25.8793 0.516576 24.7449 0.516576 23.3455V3.91189C0.516576 2.51256 1.65096 1.37818 3.05029 1.37818Z" stroke="#73645C" stroke-width="0.932567"/>
<path fill-rule="evenodd" clip-rule="evenodd" d="M12.5111 3.17973C12.5349 2.59688 12.5661 1.84819 12.5804 1.51595L12.5995 1.07249C12.6033 0.9827 12.6773 0.911896 12.7671 0.911896C12.857 0.911896 12.9309 0.9827 12.9348 1.07249L12.9538 1.51595C12.9681 1.84819 12.9993 2.59688 13.0231 3.17973C13.0469 3.76259 13.0953 4.63051 13.1307 5.10845C13.166 5.58639 13.2333 6.25402 13.2802 6.59208C13.3272 6.93013 13.414 7.42359 13.4732 7.6886C13.5324 7.95362 13.6463 8.37328 13.7263 8.62117C13.8062 8.86907 13.965 9.26261 14.0792 9.49575C14.1933 9.72889 14.3766 10.0532 14.4864 10.2164C14.5963 10.3796 14.8091 10.6593 14.9595 10.838C15.1099 11.0167 15.3791 11.286 15.5578 11.4363C15.7365 11.5867 16.0163 11.7996 16.1795 11.9094C16.3427 12.0193 16.6669 12.2024 16.9001 12.3165C17.1332 12.4305 17.5052 12.5829 17.7267 12.6552C17.9482 12.7274 18.3201 12.8317 18.5533 12.8869C18.7864 12.9421 19.1488 13.0169 19.3587 13.053C19.5685 13.0892 19.9977 13.1467 20.3124 13.1807C20.6272 13.2147 21.1732 13.2632 21.5259 13.2885C21.8785 13.3137 22.8704 13.3621 23.7301 13.3961C24.5898 13.4301 25.3361 13.4582 25.3886 13.4585C25.4715 13.4591 25.4839 13.4813 25.4839 13.6287C25.4839 13.7761 25.4715 13.7984 25.3886 13.7989C25.3361 13.7993 24.5898 13.8273 23.7301 13.8613C22.8704 13.8953 21.8785 13.9437 21.5259 13.969C21.1732 13.9942 20.6272 14.0427 20.3124 14.0767C19.9977 14.1108 19.5685 14.1682 19.3587 14.2044C19.1488 14.2406 18.7864 14.3153 18.5533 14.3705C18.3201 14.4257 17.9482 14.53 17.7267 14.6022C17.5052 14.6745 17.1332 14.8269 16.9001 14.941C16.6669 15.055 16.3427 15.2382 16.1795 15.348C16.0163 15.4579 15.7365 15.6707 15.5578 15.8211C15.3791 15.9715 15.1102 16.2407 14.9601 16.4194C14.8101 16.5981 14.6099 16.8588 14.5152 16.9987C14.4205 17.1386 14.2661 17.3961 14.172 17.5709C14.0779 17.7458 13.9327 18.0657 13.8493 18.2819C13.7659 18.4981 13.6407 18.8961 13.571 19.1663C13.5013 19.4366 13.4065 19.8701 13.3603 20.1297C13.3141 20.3894 13.2483 20.8593 13.2142 21.174C13.18 21.4888 13.132 22.0229 13.1074 22.3609C13.0829 22.699 13.0347 23.6909 13.0003 24.5652C12.966 25.4395 12.9377 26.1977 12.9373 26.2502C12.9368 26.3331 12.9145 26.3455 12.7671 26.3455C12.6197 26.3455 12.5975 26.3331 12.5969 26.2502C12.5966 26.1977 12.5682 25.4395 12.5339 24.5652C12.4996 23.6909 12.4514 22.699 12.4268 22.3609C12.4023 22.0229 12.3542 21.4888 12.3201 21.174C12.2859 20.8593 12.2201 20.3894 12.1739 20.1297C12.1277 19.8701 12.0329 19.4366 11.9632 19.1663C11.8935 18.8961 11.7683 18.4981 11.6849 18.2819C11.6015 18.0657 11.4564 17.7458 11.3623 17.5709C11.2682 17.3961 11.1138 17.1386 11.0191 16.9987C10.9244 16.8588 10.7242 16.5981 10.5741 16.4194C10.4241 16.2407 10.1551 15.9715 9.97641 15.8211C9.7977 15.6707 9.51797 15.4579 9.35477 15.348C9.19158 15.2382 8.8673 15.055 8.63416 14.941C8.40101 14.8269 8.02905 14.6745 7.80756 14.6022C7.58608 14.53 7.21411 14.4257 6.98096 14.3705C6.74782 14.3153 6.38539 14.2406 6.17556 14.2044C5.96573 14.1682 5.53654 14.1108 5.2218 14.0767C4.90706 14.0427 4.361 13.9942 4.00836 13.969C3.65572 13.9437 2.66381 13.8953 1.80411 13.8613C0.944413 13.8273 0.198148 13.7993 0.145669 13.7989C0.0627558 13.7984 0.050293 13.7761 0.050293 13.6287C0.050293 13.4813 0.0627558 13.4591 0.145669 13.4585C0.198148 13.4582 0.944413 13.4301 1.80411 13.3961C2.66381 13.3621 3.65572 13.3137 4.00836 13.2885C4.361 13.2632 4.90706 13.2147 5.2218 13.1807C5.53654 13.1467 5.96573 13.0892 6.17556 13.053C6.38539 13.0169 6.74782 12.9421 6.98096 12.8869C7.21411 12.8317 7.58608 12.7274 7.80756 12.6552C8.02905 12.5829 8.40101 12.4305 8.63416 12.3165C8.8673 12.2024 9.19158 12.0193 9.35477 11.9094C9.51797 11.7996 9.7977 11.5867 9.97641 11.4363C10.1551 11.286 10.4244 11.0167 10.5747 10.838C10.7251 10.6593 10.938 10.3796 11.0479 10.2164C11.1577 10.0532 11.3409 9.72889 11.455 9.49575C11.5692 9.26261 11.728 8.86907 11.808 8.62117C11.888 8.37328 12.0019 7.95362 12.061 7.6886C12.1203 7.42359 12.2071 6.93013 12.254 6.59208C12.301 6.25402 12.3683 5.58639 12.4036 5.10845C12.4389 4.63051 12.4873 3.76259 12.5111 3.17973ZM7.32446 13.5484C8.98388 13.5484 12.783 12.8497 12.783 8.26456C12.8121 10.0258 13.8834 13.5484 17.9358 13.5484C16.3201 13.6357 12.783 14.5527 12.783 18.8758C12.783 16.9108 11.6476 13.5484 7.32446 13.5484Z" fill="#73645C"/>
</svg>
