<svg width="20" height="20" viewBox="0 0 20 20" fill="none" xmlns="http://www.w3.org/2000/svg">
<g clip-path="url(#clip0)">
<path d="M19.2188 2.35012H15.3715V1.5625C15.3715 1.13102 15.0218 0.78125 14.5903 0.78125C14.1588 0.78125 13.809 1.13102 13.809 1.5625V2.35012H6.19098V1.5625C6.19098 1.13102 5.84121 0.78125 5.40973 0.78125C4.97824 0.78125 4.62848 1.13102 4.62848 1.5625V2.35012H0.78125C0.349766 2.35012 0 2.69992 0 3.13137V18.4375C0 18.8689 0.349766 19.2188 0.78125 19.2188H19.2188C19.6502 19.2188 20 18.8689 20 18.4375V3.13137C20 2.69992 19.6502 2.35012 19.2188 2.35012ZM18.4375 17.6562H1.5625V3.91262H4.62848V4.70027C4.62848 5.13176 4.97824 5.48152 5.40973 5.48152C5.84121 5.48152 6.19098 5.13176 6.19098 4.70027V3.91262H13.809V4.70027C13.809 5.13176 14.1588 5.48152 14.5902 5.48152C15.0217 5.48152 15.3715 5.13176 15.3715 4.70027V3.91262H18.4375V17.6562Z" fill="#DAD0C7"/>
<path d="M10 10.2324C10.5825 10.2324 11.0547 9.76022 11.0547 9.17774C11.0547 8.59525 10.5825 8.12305 10 8.12305C9.41751 8.12305 8.94531 8.59525 8.94531 9.17774C8.94531 9.76022 9.41751 10.2324 10 10.2324Z" fill="#DAD0C7"/>
<path d="M10 14.8225C10.5825 14.8225 11.0547 14.3503 11.0547 13.7678C11.0547 13.1853 10.5825 12.7131 10 12.7131C9.41751 12.7131 8.94531 13.1853 8.94531 13.7678C8.94531 14.3503 9.41751 14.8225 10 14.8225Z" fill="#DAD0C7"/>
<path d="M5.41016 10.2324C5.99265 10.2324 6.46485 9.76022 6.46485 9.17774C6.46485 8.59525 5.99265 8.12305 5.41016 8.12305C4.82767 8.12305 4.35547 8.59525 4.35547 9.17774C4.35547 9.76022 4.82767 10.2324 5.41016 10.2324Z" fill="#DAD0C7"/>
<path d="M14.5898 10.2324C15.1723 10.2324 15.6445 9.76022 15.6445 9.17774C15.6445 8.59525 15.1723 8.12305 14.5898 8.12305C14.0074 8.12305 13.5352 8.59525 13.5352 9.17774C13.5352 9.76022 14.0074 10.2324 14.5898 10.2324Z" fill="#DAD0C7"/>
<path d="M5.41016 14.8225C5.99265 14.8225 6.46485 14.3503 6.46485 13.7678C6.46485 13.1853 5.99265 12.7131 5.41016 12.7131C4.82767 12.7131 4.35547 13.1853 4.35547 13.7678C4.35547 14.3503 4.82767 14.8225 5.41016 14.8225Z" fill="#DAD0C7"/>
<path d="M14.5898 14.8225C15.1723 14.8225 15.6445 14.3503 15.6445 13.7678C15.6445 13.1853 15.1723 12.7131 14.5898 12.7131C14.0074 12.7131 13.5352 13.1853 13.5352 13.7678C13.5352 14.3503 14.0074 14.8225 14.5898 14.8225Z" fill="#DAD0C7"/>
</g>
<defs>
<clipPath id="clip0">
<rect width="20" height="20" fill="white"/>
</clipPath>
</defs>
</svg>
